<svg id="visual" viewBox="0 0 900 600" width="900" height="600" xmlns="http://www.w3.org/2000/svg" xmlns:xlink="http://www.w3.org/1999/xlink" version="1.1"><rect x="0" y="0" width="900" height="600" fill="#f3f3f3"></rect><path d="M0 447L21.5 439.2C43 431.3 86 415.7 128.8 404.8C171.7 394 214.3 388 257.2 395.2C300 402.3 343 422.7 385.8 418C428.7 413.3 471.3 383.7 514.2 377.7C557 371.7 600 389.3 642.8 388.7C685.7 388 728.3 369 771.2 360.5C814 352 857 354 878.5 355L900 356L900 601L878.5 601C857 601 814 601 771.2 601C728.3 601 685.7 601 642.8 601C600 601 557 601 514.2 601C471.3 601 428.7 601 385.8 601C343 601 300 601 257.2 601C214.3 601 171.7 601 128.8 601C86 601 43 601 21.5 601L0 601Z" fill="#a8a89e"></path><path d="M0 438L21.5 440.3C43 442.7 86 447.3 128.8 444.2C171.7 441 214.3 430 257.2 431.3C300 432.7 343 446.3 385.8 444.2C428.7 442 471.3 424 514.2 413C557 402 600 398 642.8 401.8C685.7 405.7 728.3 417.3 771.2 423.3C814 429.3 857 429.7 878.5 429.8L900 430L900 601L878.5 601C857 601 814 601 771.2 601C728.3 601 685.7 601 642.8 601C600 601 557 601 514.2 601C471.3 601 428.7 601 385.8 601C343 601 300 601 257.2 601C214.3 601 171.7 601 128.8 601C86 601 43 601 21.5 601L0 601Z" fill="#b1b1a9"></path><path d="M0 487L21.5 478.8C43 470.7 86 454.3 128.8 457.5C171.7 460.7 214.3 483.3 257.2 491.8C300 500.3 343 494.7 385.8 492.3C428.7 490 471.3 491 514.2 492.7C557 494.3 600 496.7 642.8 498.2C685.7 499.7 728.3 500.3 771.2 494.7C814 489 857 477 878.5 471L900 465L900 601L878.5 601C857 601 814 601 771.2 601C728.3 601 685.7 601 642.8 601C600 601 557 601 514.2 601C471.3 601 428.7 601 385.8 601C343 601 300 601 257.2 601C214.3 601 171.7 601 128.8 601C86 601 43 601 21.5 601L0 601Z" fill="#babab5"></path><path d="M0 501L21.5 502.5C43 504 86 507 128.8 512.8C171.7 518.7 214.3 527.3 257.2 526.3C300 525.3 343 514.7 385.8 509.7C428.7 504.7 471.3 505.3 514.2 502.8C557 500.3 600 494.7 642.8 491C685.7 487.3 728.3 485.7 771.2 488.5C814 491.3 857 498.7 878.5 502.3L900 506L900 601L878.5 601C857 601 814 601 771.2 601C728.3 601 685.7 601 642.8 601C600 601 557 601 514.2 601C471.3 601 428.7 601 385.8 601C343 601 300 601 257.2 601C214.3 601 171.7 601 128.8 601C86 601 43 601 21.5 601L0 601Z" fill="#c3c3c0"></path><path d="M0 574L21.5 573.2C43 572.3 86 570.7 128.8 566.2C171.7 561.7 214.3 554.3 257.2 548.3C300 542.3 343 537.7 385.8 540.2C428.7 542.7 471.3 552.3 514.2 552.5C557 552.7 600 543.3 642.8 537C685.7 530.7 728.3 527.3 771.2 526C814 524.7 857 525.3 878.5 525.7L900 526L900 601L878.5 601C857 601 814 601 771.2 601C728.3 601 685.7 601 642.8 601C600 601 557 601 514.2 601C471.3 601 428.7 601 385.8 601C343 601 300 601 257.2 601C214.3 601 171.7 601 128.8 601C86 601 43 601 21.5 601L0 601Z" fill="#cccccc"></path></svg>